<?xml version="1.0" encoding="utf-8"?>
<!-- Generator: Adobe Illustrator 23.0.3, SVG Export Plug-In . SVG Version: 6.00 Build 0)  -->
<svg version="1.1" id="Layer_1" xmlns="http://www.w3.org/2000/svg" xmlns:xlink="http://www.w3.org/1999/xlink" x="0px" y="0px"
	 viewBox="0 0 1600 739.8" style="enable-background:new 0 0 1600 739.8;" xml:space="preserve">
<style type="text/css">
	.st0{fill:none;stroke:#262626;stroke-width:0.6667;stroke-linecap:square;stroke-linejoin:round;stroke-miterlimit:10;}
	.st1{fill:#262626;}
	.st2{font-family:'MyriadPro-Regular';}
	.st3{font-size:13.3333px;}
	.st4{font-size:14.6667px;}
	.st5{fill:none;stroke:#000000;stroke-width:2.6667;stroke-linejoin:round;stroke-miterlimit:10;}
	.st6{fill:none;stroke:#FF0000;stroke-width:2.6667;stroke-linejoin:round;stroke-miterlimit:10;}
	.st7{fill:none;stroke:#0000FF;stroke-width:2.6667;stroke-linejoin:round;stroke-miterlimit:10;}
	
		.st8{fill:none;stroke:#FF0000;stroke-width:2.6667;stroke-linejoin:bevel;stroke-miterlimit:1;stroke-opacity:0.251;stroke-dasharray:8,8;}
	
		.st9{fill:none;stroke:#0000FF;stroke-width:2.6667;stroke-linejoin:bevel;stroke-miterlimit:1;stroke-opacity:0.251;stroke-dasharray:8,8;}
	.st10{fill:#FFFFFF;}
	.st11{font-size:12px;}
</style>
<g>
	<g>
		<g>
			<defs>
				<rect id="SVGID_1_" y="239.8" width="1600" height="500"/>
			</defs>
			<clipPath id="SVGID_2_">
				<use xlink:href="#SVGID_1_"  style="overflow:visible;"/>
			</clipPath>
		</g>
	</g>
	<g>
		<line class="st0" x1="208" y1="684.8" x2="743" y2="684.8"/>
		<line class="st0" x1="208" y1="684.8" x2="208" y2="679.5"/>
		<line class="st0" x1="261.5" y1="684.8" x2="261.5" y2="679.5"/>
		<line class="st0" x1="315" y1="684.8" x2="315" y2="679.5"/>
		<line class="st0" x1="368.5" y1="684.8" x2="368.5" y2="679.5"/>
		<line class="st0" x1="422" y1="684.8" x2="422" y2="679.5"/>
		<line class="st0" x1="475.5" y1="684.8" x2="475.5" y2="679.5"/>
		<line class="st0" x1="529" y1="684.8" x2="529" y2="679.5"/>
		<line class="st0" x1="582.5" y1="684.8" x2="582.5" y2="679.5"/>
		<line class="st0" x1="636" y1="684.8" x2="636" y2="679.5"/>
		<line class="st0" x1="689.5" y1="684.8" x2="689.5" y2="679.5"/>
		<line class="st0" x1="743" y1="684.8" x2="743" y2="679.5"/>
	</g>
	<g transform="translate(208,450.3333)">
		<text transform="matrix(1 0 0 1 -10 253.8433)" class="st1 st2 st3">-50</text>
	</g>
	<g transform="translate(261.5,450.3333)">
		<text transform="matrix(1 0 0 1 -10 253.8433)" class="st1 st2 st3">-40</text>
	</g>
	<g transform="translate(315,450.3333)">
		<text transform="matrix(1 0 0 1 -10 253.8433)" class="st1 st2 st3">-30</text>
	</g>
	<g transform="translate(368.5,450.3333)">
		<text transform="matrix(1 0 0 1 -10 253.8433)" class="st1 st2 st3">-20</text>
	</g>
	<g transform="translate(422,450.3333)">
		<text transform="matrix(1 0 0 1 -10 253.8433)" class="st1 st2 st3">-10</text>
	</g>
	<g transform="translate(475.5,450.3333)">
		<text transform="matrix(1 0 0 1 -4 253.8433)" class="st1 st2 st3">0</text>
	</g>
	<g transform="translate(529,450.3333)">
		<text transform="matrix(1 0 0 1 -7.5 253.8433)" class="st1 st2 st3">10</text>
	</g>
	<g transform="translate(582.5,450.3333)">
		<text transform="matrix(1 0 0 1 -7.5 253.8433)" class="st1 st2 st3">20</text>
	</g>
	<g transform="translate(636,450.3333)">
		<text transform="matrix(1 0 0 1 -7.5 253.8433)" class="st1 st2 st3">30</text>
	</g>
	<g transform="translate(689.5,450.3333)">
		<text transform="matrix(1 0 0 1 -7.5 253.8433)" class="st1 st2 st3">40</text>
	</g>
	<g transform="translate(743,450.3333)">
		<text transform="matrix(1 0 0 1 -7.5 253.8433)" class="st1 st2 st3">50</text>
	</g>
	<g transform="translate(475.5002,468.6667)">
		<text transform="matrix(1 0 0 1 -85.5 254.8433)" class="st1 st2 st4">Stimulus feature (location)</text>
	</g>
	<g>
		<line class="st0" x1="208" y1="684.8" x2="208" y2="276.8"/>
		<line class="st0" x1="208" y1="684.8" x2="213.4" y2="684.8"/>
		<line class="st0" x1="208" y1="644" x2="213.4" y2="644"/>
		<line class="st0" x1="208" y1="603.2" x2="213.4" y2="603.2"/>
		<line class="st0" x1="208" y1="562.4" x2="213.4" y2="562.4"/>
		<line class="st0" x1="208" y1="521.6" x2="213.4" y2="521.6"/>
		<line class="st0" x1="208" y1="480.8" x2="213.4" y2="480.8"/>
		<line class="st0" x1="208" y1="440" x2="213.4" y2="440"/>
		<line class="st0" x1="208" y1="399.2" x2="213.4" y2="399.2"/>
		<line class="st0" x1="208" y1="358.4" x2="213.4" y2="358.4"/>
		<line class="st0" x1="208" y1="317.6" x2="213.4" y2="317.6"/>
		<line class="st0" x1="208" y1="276.8" x2="213.4" y2="276.8"/>
	</g>
	<g transform="translate(202.6667,445)">
		<text transform="matrix(1 0 0 1 -8 245.3433)" class="st1 st2 st3">0</text>
	</g>
	<g transform="translate(202.6667,404.2)">
		<text transform="matrix(1 0 0 1 -26 245.3433)" class="st1 st2 st3">0.01</text>
	</g>
	<g transform="translate(202.6667,363.4)">
		<text transform="matrix(1 0 0 1 -26 245.3433)" class="st1 st2 st3">0.02</text>
	</g>
	<g transform="translate(202.6667,322.6)">
		<text transform="matrix(1 0 0 1 -26 245.3433)" class="st1 st2 st3">0.03</text>
	</g>
	<g transform="translate(202.6667,281.8)">
		<text transform="matrix(1 0 0 1 -26 245.3433)" class="st1 st2 st3">0.04</text>
	</g>
	<g transform="translate(202.6667,241)">
		<text transform="matrix(1 0 0 1 -26 245.3433)" class="st1 st2 st3">0.05</text>
	</g>
	<g transform="translate(202.6667,200.2)">
		<text transform="matrix(1 0 0 1 -26 245.3434)" class="st1 st2 st3">0.06</text>
	</g>
	<g transform="translate(202.6667,159.4)">
		<text transform="matrix(1 0 0 1 -26 245.3434)" class="st1 st2 st3">0.07</text>
	</g>
	<g transform="translate(202.6667,118.6)">
		<text transform="matrix(1 0 0 1 -26 245.3433)" class="st1 st2 st3">0.08</text>
	</g>
	<g transform="translate(202.6667,77.8)">
		<text transform="matrix(1 0 0 1 -26 245.3433)" class="st1 st2 st3">0.09</text>
	</g>
	<g transform="translate(202.6667,37)">
		<text transform="matrix(1 0 0 1 -19 245.3433)" class="st1 st2 st3">0.1</text>
	</g>
	<g transform="translate(172.6667,240.9998) rotate(-90)">
		<text transform="matrix(1 0 0 1 -274.3429 -4)" class="st1 st2 st4">Probability</text>
	</g>
	<g transform="translate(475.5005,34.25)">
		<text transform="matrix(1 0 0 1 -57 235.8433)" class="st2 st4">Small Target Separation</text>
	</g>
	<g>
		<path class="st5" d="M208,684.8h1.3h1.3h1.3h1.3h1.3h1.3h1.3h1.3h1.3h1.3h1.3h1.3h1.3h1.3h1.3h1.3h1.3h1.3h1.3h1.3h1.3h1.3h1.3
			h1.3h1.3h1.3h1.3h1.3h1.3h1.3h1.3h1.3h1.3h1.3h1.3h1.3h1.3h1.3h1.3h1.3h1.3h1.3h1.3h1.3h1.3h1.3h1.3h1.3h1.3h1.3h1.3h1.3h1.3h1.3
			h1.3h1.3h1.3h1.3h1.3h1.3h1.3h1.3h1.3h1.3h1.3h1.3h1.3h1.3h1.3h1.3h1.3h1.3h1.3h1.3h1.3h1.3h1.3h1.3h1.3h1.3h1.3h1.3h1.3h1.3h1.3
			h1.3h1.3h1.3h1.3h1.3h1.3h1.3h1.3h1.3h1.3h1.3h1.3h1.3h1.3h1.3h1.3h1.3h1.3h1.3h1.3h1.3h1.3l1.3,0h1.3h1.3l1.3,0l1.3,0l1.3,0
			l1.3,0l1.3,0l1.3,0l1.3,0l1.3,0l1.3,0l1.3,0l1.3,0l1.3,0l1.3,0l1.3,0l1.3,0l1.3,0l1.3,0l1.3,0l1.3,0l1.3,0l1.3,0l1.3,0l1.3,0
			l1.3-0.1l1.3-0.1l1.3-0.1l1.3-0.1l1.3-0.1l1.3-0.2l1.3-0.2l1.3-0.3l1.3-0.3l1.3-0.4l1.3-0.5l1.3-0.6l1.3-0.7l1.3-0.9l1.3-1.1
			l1.3-1.3l1.3-1.5l1.3-1.7l1.3-2l1.3-2.3l1.3-2.7l1.3-3.1l1.3-3.5l1.3-3.9l1.3-4.4l1.3-5l1.3-5.5l1.3-6.1l1.3-6.7l1.3-7.3l1.3-8
			l1.3-8.6l1.3-9.2l1.3-9.8l1.3-10.4l1.3-10.9l1.3-11.4l1.3-11.8l1.3-12.1l1.3-12.3l1.3-12.5l1.3-12.5l1.3-12.4l1.3-12.1l1.3-11.8
			l1.3-11.3l1.3-10.7l1.3-9.9l1.3-9l1.3-8l1.3-6.9l1.3-5.7l1.3-4.4l1.3-3.1l1.3-1.7l1.3-0.3l1.3,1.1l1.3,2.5l1.3,3.9l1.3,5.2
			l1.3,6.4l1.3,7.6l1.3,8.6l1.3,9.5l1.3,10.4l1.3,11l1.3,11.6l1.3,12l1.3,12.3l1.3,12.4l1.3,12.5l1.3,12.4l1.3,12.2l1.3,11.9
			l1.3,11.5l1.3,11.1l1.3,10.6l1.3,10l1.3,9.5l1.3,8.8l1.3,8.2l1.3,7.6l1.3,7l1.3,6.3l1.3,5.8l1.3,5.2l1.3,4.6l1.3,4.1l1.3,3.7
			l1.3,3.2l1.3,2.8l1.3,2.5l1.3,2.1l1.3,1.8l1.3,1.6l1.3,1.3l1.3,1.1l1.3,1l1.3,0.8l1.3,0.7l1.3,0.6l1.3,0.5l1.3,0.4l1.3,0.3
			l1.3,0.3l1.3,0.2l1.3,0.2l1.3,0.1l1.3,0.1l1.3,0.1l1.3,0.1l1.3,0.1l1.3,0l1.3,0l1.3,0l1.3,0l1.3,0l1.3,0l1.3,0l1.3,0l1.3,0l1.3,0
			l1.3,0l1.3,0l1.3,0l1.3,0l1.3,0l1.3,0l1.3,0l1.3,0l1.3,0l1.3,0l1.3,0h1.3l1.3,0h1.3h1.3l1.3,0h1.3h1.3h1.3h1.3h1.3h1.3h1.3h1.3
			h1.3h1.3h1.3h1.3h1.3h1.3h1.3h1.3h1.3h1.3h1.3h1.3h1.3h1.3h1.3h1.3h1.3h1.3h1.3h1.3h1.3h1.3h1.3h1.3h1.3h1.3h1.3h1.3h1.3h1.3h1.3
			h1.3h1.3h1.3h1.3h1.3h1.3h1.3h1.3h1.3h1.3h1.3h1.3h1.3h1.3h1.3h1.3h1.3h1.3h1.3h1.3h1.3h1.3h1.3h1.3h1.3h1.3h1.3h1.3h1.3h1.3h1.3
			h1.3h1.3h1.3h1.3h1.3h1.3h1.3h1.3h1.3h1.3h1.3h1.3h1.3h1.3h1.3h1.3h1.3h1.3h1.3h1.3h1.3h1.3h1.3h1.3h1.3h1.3h1.3h1.3h1.3h1.3h1.3
			h1.3h1.3h1.3h1.3h1.3h1.3h1.3h1.3h1.3h1.3h1.3h1.3h1.3h1.3h1.3h1.3h1.3h1.3h1.3h1.3h1.3h1.3h1.3h1.3h1.3h1.3h1.3h1.3"/>
		<path class="st6" d="M208,684.8h1.3h1.3h1.3h1.3h1.3h1.3h1.3h1.3h1.3h1.3h1.3h1.3h1.3h1.3h1.3h1.3h1.3h1.3h1.3h1.3h1.3h1.3h1.3
			h1.3h1.3h1.3h1.3h1.3h1.3h1.3h1.3h1.3h1.3h1.3h1.3h1.3h1.3h1.3h1.3h1.3h1.3h1.3h1.3h1.3h1.3h1.3h1.3h1.3h1.3h1.3h1.3h1.3h1.3h1.3
			h1.3h1.3h1.3h1.3h1.3h1.3h1.3h1.3h1.3h1.3h1.3h1.3h1.3h1.3h1.3h1.3h1.3h1.3h1.3h1.3h1.3h1.3h1.3h1.3h1.3l1.3,0h1.3h1.3h1.3h1.3
			h1.3h1.3l1.3,0h1.3h1.3h1.3h1.3l1.3,0h1.3l1.3,0h1.3l1.3,0l1.3,0l1.3,0l1.3,0l1.3,0l1.3,0l1.3,0l1.3,0l1.3,0l1.3,0l1.3,0l1.3,0
			l1.3,0l1.3,0l1.3,0l1.3,0l1.3,0l1.3,0l1.3,0l1.3,0l1.3,0l1.3,0l1.3,0l1.3,0l1.3,0l1.3,0l1.3,0l1.3,0l1.3,0l1.3,0l1.3,0l1.3,0
			l1.3,0l1.3,0l1.3,0l1.3,0l1.3,0l1.3,0l1.3,0l1.3,0l1.3,0l1.3,0l1.3,0l1.3,0l1.3,0l1.3,0l1.3,0l1.3,0l1.3,0l1.3,0l1.3,0l1.3,0
			l1.3,0l1.3,0l1.3,0l1.3,0l1.3,0l1.3-0.1l1.3-0.1l1.3-0.1l1.3-0.1l1.3-0.1l1.3-0.1l1.3-0.1l1.3-0.1l1.3-0.1l1.3-0.1l1.3-0.1
			l1.3-0.1l1.3-0.2l1.3-0.2l1.3-0.2l1.3-0.2l1.3-0.2l1.3-0.2l1.3-0.3l1.3-0.3l1.3-0.3l1.3-0.3l1.3-0.4l1.3-0.4l1.3-0.4l1.3-0.5
			l1.3-0.5l1.3-0.5l1.3-0.6l1.3-0.6l1.3-0.6l1.3-0.7l1.3-0.7l1.3-0.8l1.3-0.8l1.3-0.9l1.3-0.9l1.3-1l1.3-1l1.3-1.1l1.3-1.1l1.3-1.2
			l1.3-1.2l1.3-1.3l1.3-1.3l1.3-1.4l1.3-1.4l1.3-1.5l1.3-1.5l1.3-1.6l1.3-1.6l1.3-1.7l1.3-1.7l1.3-1.8l1.3-1.8l1.3-1.8l1.3-1.9
			l1.3-1.9l1.3-1.9l1.3-1.9l1.3-1.9l1.3-1.9l1.3-1.9l1.3-1.9l1.3-1.9l1.3-1.9l1.3-1.8l1.3-1.8l1.3-1.8l1.3-1.7l1.3-1.7l1.3-1.6
			l1.3-1.5l1.3-1.4l1.3-1.4l1.3-1.3l1.3-1.2l1.3-1.1l1.3-1l1.3-0.9l1.3-0.8l1.3-0.7l1.3-0.6l1.3-0.4l1.3-0.3l1.3-0.2l1.3-0.1l1.3,0
			l1.3,0.2l1.3,0.3l1.3,0.4l1.3,0.5l1.3,0.6l1.3,0.8l1.3,0.9l1.3,1l1.3,1.1l1.3,1.2l1.3,1.3l1.3,1.4l1.3,1.4l1.3,1.5l1.3,1.6
			l1.3,1.7l1.3,1.7l1.3,1.8l1.3,1.8l1.3,1.8l1.3,1.9l1.3,1.9l1.3,1.9l1.3,1.9l1.3,1.9l1.3,1.9l1.3,1.9l1.3,1.9l1.3,1.9l1.3,1.9
			l1.3,1.9l1.3,1.8l1.3,1.8l1.3,1.8l1.3,1.7l1.3,1.7l1.3,1.6l1.3,1.6l1.3,1.5l1.3,1.5l1.3,1.4l1.3,1.4l1.3,1.3l1.3,1.3l1.3,1.2
			l1.3,1.1l1.3,1.1l1.3,1l1.3,1l1.3,0.9l1.3,0.9l1.3,0.8l1.3,0.8l1.3,0.7l1.3,0.7l1.3,0.6l1.3,0.6l1.3,0.6l1.3,0.5l1.3,0.5l1.3,0.5
			l1.3,0.4l1.3,0.4l1.3,0.4l1.3,0.3l1.3,0.3l1.3,0.3l1.3,0.3l1.3,0.2l1.3,0.2l1.3,0.2l1.3,0.2l1.3,0.2l1.3,0.2l1.3,0.1l1.3,0.1
			l1.3,0.1l1.3,0.1l1.3,0.1l1.3,0.1l1.3,0.1l1.3,0.1l1.3,0.1l1.3,0.1l1.3,0l1.3,0l1.3,0l1.3,0l1.3,0l1.3,0l1.3,0l1.3,0l1.3,0l1.3,0
			l1.3,0l1.3,0l1.3,0l1.3,0l1.3,0l1.3,0l1.3,0l1.3,0l1.3,0l1.3,0l1.3,0l1.3,0l1.3,0l1.3,0l1.3,0l1.3,0l1.3,0l1.3,0l1.3,0l1.3,0
			l1.3,0l1.3,0l1.3,0l1.3,0l1.3,0l1.3,0l1.3,0l1.3,0l1.3,0l1.3,0l1.3,0l1.3,0l1.3,0l1.3,0h1.3l1.3,0l1.3,0l1.3,0h1.3h1.3h1.3l1.3,0
			h1.3h1.3h1.3h1.3h1.3l1.3,0h1.3h1.3h1.3h1.3h1.3h1.3h1.3h1.3h1.3h1.3h1.3h1.3h1.3h1.3h1.3h1.3h1.3h1.3"/>
		<path class="st7" d="M208,684.8h1.3h1.3h1.3h1.3h1.3h1.3h1.3h1.3h1.3h1.3h1.3h1.3h1.3h1.3h1.3h1.3h1.3h1.3h1.3h1.3h1.3h1.3h1.3
			h1.3h1.3h1.3h1.3h1.3h1.3h1.3h1.3h1.3h1.3h1.3h1.3h1.3h1.3h1.3h1.3h1.3h1.3h1.3h1.3h1.3h1.3h1.3h1.3h1.3h1.3h1.3h1.3h1.3h1.3h1.3
			h1.3h1.3h1.3h1.3h1.3h1.3h1.3h1.3h1.3h1.3h1.3h1.3h1.3h1.3h1.3h1.3h1.3h1.3h1.3h1.3h1.3h1.3h1.3h1.3h1.3h1.3l1.3,0h1.3h1.3l1.3,0
			h1.3l1.3,0l1.3,0l1.3,0l1.3,0l1.3,0l1.3,0l1.3,0l1.3,0l1.3,0l1.3,0l1.3,0l1.3,0l1.3,0l1.3,0l1.3,0l1.3,0l1.3,0l1.3,0l1.3,0l1.3,0
			l1.3,0l1.3,0l1.3,0l1.3,0l1.3,0l1.3,0l1.3,0l1.3-0.1l1.3-0.1l1.3-0.1l1.3-0.1l1.3-0.1l1.3-0.1l1.3-0.2l1.3-0.2l1.3-0.2l1.3-0.3
			l1.3-0.3l1.3-0.4l1.3-0.4l1.3-0.5l1.3-0.6l1.3-0.7l1.3-0.8l1.3-0.9l1.3-1l1.3-1.1l1.3-1.3l1.3-1.4l1.3-1.6l1.3-1.7l1.3-1.9
			l1.3-2.1l1.3-2.3l1.3-2.5l1.3-2.7l1.3-2.9l1.3-3.2l1.3-3.4l1.3-3.6l1.3-3.8l1.3-4l1.3-4.1l1.3-4.3l1.3-4.5l1.3-4.6l1.3-4.7
			l1.3-4.7l1.3-4.8l1.3-4.8l1.3-4.8l1.3-4.7l1.3-4.6l1.3-4.4l1.3-4.2l1.3-4l1.3-3.7l1.3-3.4l1.3-3.1l1.3-2.7l1.3-2.3l1.3-1.9
			l1.3-1.5l1.3-1l1.3-0.5l1.3-0.1l1.3,0.4l1.3,0.9l1.3,1.4l1.3,1.8l1.3,2.2l1.3,2.6l1.3,3l1.3,3.4l1.3,3.7l1.3,3.9l1.3,4.2l1.3,4.4
			l1.3,4.5l1.3,4.6l1.3,4.7l1.3,4.8l1.3,4.8l1.3,4.7l1.3,4.7l1.3,4.6l1.3,4.5l1.3,4.3l1.3,4.2l1.3,4l1.3,3.8l1.3,3.6l1.3,3.4
			l1.3,3.2l1.3,3l1.3,2.8l1.3,2.6l1.3,2.4l1.3,2.2l1.3,2l1.3,1.8l1.3,1.6l1.3,1.5l1.3,1.3l1.3,1.2l1.3,1l1.3,0.9l1.3,0.8l1.3,0.7
			l1.3,0.6l1.3,0.5l1.3,0.5l1.3,0.4l1.3,0.4l1.3,0.3l1.3,0.3l1.3,0.2l1.3,0.2l1.3,0.2l1.3,0.1l1.3,0.1l1.3,0.1l1.3,0.1l1.3,0.1
			l1.3,0.1l1.3,0l1.3,0l1.3,0l1.3,0l1.3,0l1.3,0l1.3,0l1.3,0l1.3,0l1.3,0l1.3,0l1.3,0l1.3,0l1.3,0l1.3,0l1.3,0l1.3,0l1.3,0l1.3,0
			l1.3,0l1.3,0l1.3,0l1.3,0l1.3,0l1.3,0l1.3,0l1.3,0h1.3l1.3,0h1.3h1.3h1.3l1.3,0h1.3h1.3h1.3h1.3h1.3h1.3h1.3h1.3h1.3h1.3h1.3h1.3
			h1.3h1.3h1.3h1.3h1.3h1.3h1.3h1.3h1.3h1.3h1.3h1.3h1.3h1.3h1.3h1.3h1.3h1.3h1.3h1.3h1.3h1.3h1.3h1.3h1.3h1.3h1.3h1.3h1.3h1.3h1.3
			h1.3h1.3h1.3h1.3h1.3h1.3h1.3h1.3h1.3h1.3h1.3h1.3h1.3h1.3h1.3h1.3h1.3h1.3h1.3h1.3h1.3h1.3h1.3h1.3h1.3h1.3h1.3h1.3h1.3h1.3h1.3
			h1.3h1.3h1.3h1.3h1.3h1.3h1.3h1.3h1.3h1.3h1.3h1.3h1.3h1.3h1.3h1.3h1.3h1.3h1.3h1.3h1.3h1.3h1.3h1.3h1.3h1.3h1.3h1.3h1.3h1.3h1.3
			h1.3h1.3h1.3h1.3h1.3h1.3h1.3h1.3h1.3h1.3h1.3h1.3h1.3h1.3h1.3h1.3h1.3h1.3h1.3h1.3h1.3h1.3h1.3h1.3h1.3h1.3h1.3h1.3h1.3h1.3h1.3
			h1.3"/>
	</g>
	<g>
		<path class="st8" d="M208,684.8h1.3h1.3h1.3h1.3h1.3h1.3h1.3h1.3h1.3h1.3h1.3h1.3h1.3h1.3h1.3h1.3h1.3h1.3h1.3h1.3h1.3h1.3h1.3
			h1.3h1.3h1.3h1.3h1.3h1.3h1.3h1.3h1.3h1.3h1.3h1.3h1.3h1.3h1.3h1.3h1.3h1.3h1.3h1.3h1.3h1.3h1.3h1.3h1.3h1.3h1.3h1.3h1.3h1.3h1.3
			h1.3h1.3h1.3h1.3h1.3h1.3h1.3h1.3h1.3h1.3h1.3h1.3l1.3,0h1.3h1.3h1.3h1.3h1.3l1.3,0h1.3h1.3h1.3l1.3,0l1.3,0l1.3,0h1.3l1.3,0
			l1.3,0l1.3,0l1.3,0l1.3,0l1.3,0l1.3,0l1.3,0l1.3,0l1.3,0l1.3,0l1.3,0l1.3,0l1.3,0l1.3,0l1.3,0l1.3,0l1.3,0l1.3,0l1.3,0l1.3,0
			l1.3,0l1.3,0l1.3,0l1.3,0l1.3,0l1.3,0l1.3,0l1.3,0l1.3,0l1.3,0l1.3,0l1.3,0l1.3,0l1.3,0l1.3,0l1.3,0l1.3,0l1.3,0l1.3,0l1.3,0
			l1.3,0l1.3,0l1.3-0.1l1.3-0.1l1.3-0.1l1.3-0.1l1.3-0.1l1.3-0.1l1.3-0.1l1.3-0.1l1.3-0.1l1.3-0.1l1.3-0.2l1.3-0.2l1.3-0.2l1.3-0.2
			l1.3-0.2l1.3-0.3l1.3-0.3l1.3-0.3l1.3-0.3l1.3-0.4l1.3-0.4l1.3-0.4l1.3-0.5l1.3-0.5l1.3-0.6l1.3-0.6l1.3-0.7l1.3-0.7l1.3-0.8
			l1.3-0.8l1.3-0.9l1.3-1l1.3-1l1.3-1.1l1.3-1.2l1.3-1.3l1.3-1.4l1.3-1.5l1.3-1.6l1.3-1.7l1.3-1.8l1.3-1.9l1.3-2l1.3-2.1l1.3-2.2
			l1.3-2.3l1.3-2.5l1.3-2.6l1.3-2.7l1.3-2.8l1.3-3l1.3-3.1l1.3-3.2l1.3-3.3l1.3-3.5l1.3-3.6l1.3-3.7l1.3-3.8l1.3-4l1.3-4.1l1.3-4.2
			l1.3-4.3l1.3-4.4l1.3-4.5l1.3-4.6l1.3-4.7l1.3-4.7l1.3-4.8l1.3-4.8l1.3-4.9l1.3-4.9l1.3-4.9l1.3-4.9l1.3-4.9l1.3-4.9l1.3-4.9
			l1.3-4.8l1.3-4.8l1.3-4.7l1.3-4.6l1.3-4.5l1.3-4.4l1.3-4.3l1.3-4.2l1.3-4l1.3-3.8l1.3-3.7l1.3-3.5l1.3-3.3l1.3-3l1.3-2.8l1.3-2.6
			l1.3-2.3l1.3-2.1l1.3-1.8l1.3-1.6l1.3-1.3l1.3-1l1.3-0.7l1.3-0.4l1.3-0.1l1.3,0.1l1.3,0.4l1.3,0.7l1.3,1l1.3,1.3l1.3,1.6l1.3,1.8
			l1.3,2.1l1.3,2.3l1.3,2.6l1.3,2.8l1.3,3.1l1.3,3.3l1.3,3.5l1.3,3.7l1.3,3.8l1.3,4l1.3,4.2l1.3,4.3l1.3,4.4l1.3,4.5l1.3,4.6
			l1.3,4.7l1.3,4.8l1.3,4.8l1.3,4.9l1.3,4.9l1.3,4.9l1.3,4.9l1.3,4.9l1.3,4.9l1.3,4.9l1.3,4.8l1.3,4.8l1.3,4.7l1.3,4.6l1.3,4.6
			l1.3,4.5l1.3,4.4l1.3,4.3l1.3,4.2l1.3,4.1l1.3,4l1.3,3.8l1.3,3.7l1.3,3.6l1.3,3.5l1.3,3.3l1.3,3.2l1.3,3.1l1.3,2.9l1.3,2.8
			l1.3,2.7l1.3,2.6l1.3,2.4l1.3,2.3l1.3,2.2l1.3,2.1l1.3,2l1.3,1.9l1.3,1.8l1.3,1.7l1.3,1.6l1.3,1.5l1.3,1.4l1.3,1.3l1.3,1.2
			l1.3,1.1l1.3,1l1.3,1l1.3,0.9l1.3,0.8l1.3,0.8l1.3,0.7l1.3,0.7l1.3,0.6l1.3,0.6l1.3,0.5l1.3,0.5l1.3,0.4l1.3,0.4l1.3,0.4l1.3,0.3
			l1.3,0.3l1.3,0.3l1.3,0.3l1.3,0.2l1.3,0.2l1.3,0.2l1.3,0.2l1.3,0.2l1.3,0.1l1.3,0.1l1.3,0.1l1.3,0.1l1.3,0.1l1.3,0.1l1.3,0.1
			l1.3,0.1l1.3,0.1l1.3,0.1l1.3,0l1.3,0l1.3,0l1.3,0l1.3,0l1.3,0l1.3,0l1.3,0l1.3,0l1.3,0l1.3,0l1.3,0l1.3,0l1.3,0l1.3,0l1.3,0
			l1.3,0l1.3,0l1.3,0l1.3,0l1.3,0l1.3,0l1.3,0l1.3,0l1.3,0l1.3,0l1.3,0l1.3,0l1.3,0l1.3,0l1.3,0l1.3,0l1.3,0l1.3,0l1.3,0l1.3,0
			l1.3,0l1.3,0l1.3,0l1.3,0l1.3,0l1.3,0l1.3,0h1.3l1.3,0l1.3,0l1.3,0h1.3h1.3h1.3l1.3,0h1.3h1.3h1.3h1.3h1.3l1.3,0h1.3h1.3h1.3h1.3
			h1.3h1.3h1.3h1.3h1.3h1.3h1.3h1.3h1.3h1.3h1.3h1.3h1.3h1.3"/>
		<path class="st9" d="M208,684.8h1.3h1.3h1.3h1.3h1.3h1.3h1.3h1.3h1.3h1.3h1.3h1.3h1.3h1.3h1.3h1.3h1.3h1.3h1.3h1.3h1.3h1.3h1.3
			h1.3h1.3h1.3h1.3h1.3h1.3h1.3h1.3h1.3h1.3h1.3h1.3h1.3h1.3h1.3h1.3h1.3h1.3h1.3h1.3h1.3h1.3h1.3h1.3h1.3h1.3h1.3h1.3h1.3h1.3h1.3
			h1.3h1.3h1.3h1.3h1.3h1.3h1.3h1.3h1.3h1.3h1.3h1.3h1.3h1.3h1.3h1.3h1.3h1.3h1.3h1.3h1.3h1.3h1.3h1.3h1.3h1.3l1.3,0h1.3h1.3l1.3,0
			h1.3l1.3,0l1.3,0l1.3,0l1.3,0l1.3,0l1.3,0l1.3,0l1.3,0l1.3,0l1.3,0l1.3,0l1.3,0l1.3,0l1.3,0l1.3,0l1.3,0l1.3,0l1.3,0l1.3,0l1.3,0
			l1.3,0l1.3,0l1.3,0l1.3,0l1.3,0l1.3-0.1l1.3-0.1l1.3-0.1l1.3-0.1l1.3-0.1l1.3-0.1l1.3-0.2l1.3-0.2l1.3-0.2l1.3-0.3l1.3-0.4
			l1.3-0.4l1.3-0.5l1.3-0.6l1.3-0.7l1.3-0.8l1.3-0.9l1.3-1.1l1.3-1.3l1.3-1.4l1.3-1.7l1.3-1.9l1.3-2.2l1.3-2.5l1.3-2.8l1.3-3.1
			l1.3-3.5l1.3-3.9l1.3-4.3l1.3-4.8l1.3-5.3l1.3-5.8l1.3-6.4l1.3-6.9l1.3-7.5l1.3-8.1l1.3-8.7l1.3-9.3l1.3-9.9l1.3-10.4l1.3-11
			l1.3-11.5l1.3-12l1.3-12.4l1.3-12.8l1.3-13.2l1.3-13.4l1.3-13.6l1.3-13.7l1.3-13.7l1.3-13.6l1.3-13.4l1.3-13.1l1.3-12.7l1.3-12.2
			l1.3-11.6l1.3-10.8l1.3-10l1.3-9.1l1.3-8.1l1.3-7l1.3-5.8l1.3-4.6l1.3-3.3l1.3-2l1.3-0.7l1.3,0.7l1.3,2l1.3,3.3l1.3,4.6l1.3,5.8
			l1.3,6.9l1.3,8l1.3,9.1l1.3,10l1.3,10.8l1.3,11.5l1.3,12.2l1.3,12.7l1.3,13.1l1.3,13.4l1.3,13.6l1.3,13.7l1.3,13.7l1.3,13.6
			l1.3,13.4l1.3,13.2l1.3,12.8l1.3,12.4l1.3,12l1.3,11.5l1.3,11l1.3,10.4l1.3,9.9l1.3,9.3l1.3,8.7l1.3,8.1l1.3,7.5l1.3,6.9l1.3,6.4
			l1.3,5.8l1.3,5.3l1.3,4.8l1.3,4.4l1.3,3.9l1.3,3.5l1.3,3.1l1.3,2.8l1.3,2.5l1.3,2.2l1.3,1.9l1.3,1.7l1.3,1.5l1.3,1.3l1.3,1.1
			l1.3,0.9l1.3,0.8l1.3,0.7l1.3,0.6l1.3,0.5l1.3,0.4l1.3,0.4l1.3,0.3l1.3,0.2l1.3,0.2l1.3,0.2l1.3,0.1l1.3,0.1l1.3,0.1l1.3,0.1
			l1.3,0.1l1.3,0.1l1.3,0l1.3,0l1.3,0l1.3,0l1.3,0l1.3,0l1.3,0l1.3,0l1.3,0l1.3,0l1.3,0l1.3,0l1.3,0l1.3,0l1.3,0l1.3,0l1.3,0l1.3,0
			l1.3,0l1.3,0l1.3,0l1.3,0l1.3,0l1.3,0l1.3,0h1.3l1.3,0h1.3h1.3l1.3,0h1.3h1.3h1.3h1.3h1.3h1.3h1.3h1.3h1.3h1.3h1.3h1.3h1.3h1.3
			h1.3h1.3h1.3h1.3h1.3h1.3h1.3h1.3h1.3h1.3h1.3h1.3h1.3h1.3h1.3h1.3h1.3h1.3h1.3h1.3h1.3h1.3h1.3h1.3h1.3h1.3h1.3h1.3h1.3h1.3h1.3
			h1.3h1.3h1.3h1.3h1.3h1.3h1.3h1.3h1.3h1.3h1.3h1.3h1.3h1.3h1.3h1.3h1.3h1.3h1.3h1.3h1.3h1.3h1.3h1.3h1.3h1.3h1.3h1.3h1.3h1.3h1.3
			h1.3h1.3h1.3h1.3h1.3h1.3h1.3h1.3h1.3h1.3h1.3h1.3h1.3h1.3h1.3h1.3h1.3h1.3h1.3h1.3h1.3h1.3h1.3h1.3h1.3h1.3h1.3h1.3h1.3h1.3h1.3
			h1.3h1.3h1.3h1.3h1.3h1.3h1.3h1.3h1.3h1.3h1.3h1.3h1.3h1.3h1.3h1.3h1.3h1.3h1.3h1.3h1.3"/>
	</g>
	<g>
		<path class="st10" d="M732,373.8v-86H524v86H732z"/>
	</g>
	<g transform="translate(571,58)">
		<text transform="matrix(1 0 0 1 0 244.8433)" class="st2 st11">Integrated estimate (1 cause)</text>
	</g>
	<g>
		<line class="st5" x1="528" y1="297.8" x2="568" y2="297.8"/>
	</g>
	<g transform="translate(571,74.5)">
		<text transform="matrix(1 0 0 1 0 244.8433)" class="st2 st11">Auditory estimate (2 cause)</text>
	</g>
	<g>
		<line class="st6" x1="528" y1="314.3" x2="568" y2="314.3"/>
	</g>
	<g transform="translate(571,91)">
		<text transform="matrix(1 0 0 1 0 244.8433)" class="st2 st11">Visual estimate(2 cause)</text>
	</g>
	<g>
		<line class="st7" x1="528" y1="330.8" x2="568" y2="330.8"/>
	</g>
	<g transform="translate(571,107.5)">
		<text transform="matrix(1 0 0 1 0 244.8433)" class="st2 st11">Auditory Unimodal</text>
	</g>
	<g>
		<line class="st8" x1="528" y1="347.3" x2="568" y2="347.3"/>
	</g>
	<g transform="translate(571,124)">
		<text transform="matrix(1 0 0 1 0 244.8433)" class="st2 st11">Visual Unimodal</text>
	</g>
	<g>
		<line class="st9" x1="528" y1="363.8" x2="568" y2="363.8"/>
	</g>
	<g>
		<line class="st0" x1="913" y1="684.8" x2="1448" y2="684.8"/>
		<line class="st0" x1="913" y1="684.8" x2="913" y2="679.5"/>
		<line class="st0" x1="966.5" y1="684.8" x2="966.5" y2="679.5"/>
		<line class="st0" x1="1020" y1="684.8" x2="1020" y2="679.5"/>
		<line class="st0" x1="1073.5" y1="684.8" x2="1073.5" y2="679.5"/>
		<line class="st0" x1="1127" y1="684.8" x2="1127" y2="679.5"/>
		<line class="st0" x1="1180.5" y1="684.8" x2="1180.5" y2="679.5"/>
		<line class="st0" x1="1234" y1="684.8" x2="1234" y2="679.5"/>
		<line class="st0" x1="1287.5" y1="684.8" x2="1287.5" y2="679.5"/>
		<line class="st0" x1="1341" y1="684.8" x2="1341" y2="679.5"/>
		<line class="st0" x1="1394.5" y1="684.8" x2="1394.5" y2="679.5"/>
		<line class="st0" x1="1448" y1="684.8" x2="1448" y2="679.5"/>
	</g>
	<g transform="translate(913,450.3333)">
		<text transform="matrix(1 0 0 1 -10 253.8433)" class="st1 st2 st3">-50</text>
	</g>
	<g transform="translate(966.5,450.3333)">
		<text transform="matrix(1 0 0 1 -10 253.8433)" class="st1 st2 st3">-40</text>
	</g>
	<g transform="translate(1020,450.3333)">
		<text transform="matrix(1 0 0 1 -10 253.8433)" class="st1 st2 st3">-30</text>
	</g>
	<g transform="translate(1073.5,450.3333)">
		<text transform="matrix(1 0 0 1 -10 253.8433)" class="st1 st2 st3">-20</text>
	</g>
	<g transform="translate(1127,450.3333)">
		<text transform="matrix(1 0 0 1 -10 253.8433)" class="st1 st2 st3">-10</text>
	</g>
	<g transform="translate(1180.5,450.3333)">
		<text transform="matrix(1 0 0 1 -4 253.8433)" class="st1 st2 st3">0</text>
	</g>
	<g transform="translate(1234,450.3333)">
		<text transform="matrix(1 0 0 1 -7.5 253.8433)" class="st1 st2 st3">10</text>
	</g>
	<g transform="translate(1287.5,450.3333)">
		<text transform="matrix(1 0 0 1 -7.5 253.8433)" class="st1 st2 st3">20</text>
	</g>
	<g transform="translate(1341,450.3333)">
		<text transform="matrix(1 0 0 1 -7.5 253.8433)" class="st1 st2 st3">30</text>
	</g>
	<g transform="translate(1394.5,450.3333)">
		<text transform="matrix(1 0 0 1 -7.5 253.8433)" class="st1 st2 st3">40</text>
	</g>
	<g transform="translate(1448,450.3333)">
		<text transform="matrix(1 0 0 1 -7.5 253.8433)" class="st1 st2 st3">50</text>
	</g>
	<g transform="translate(1180.5002,468.6667)">
		<text transform="matrix(1 0 0 1 -85.5 254.8433)" class="st1 st2 st4">Stimulus feature (location)</text>
	</g>
	<g>
		<line class="st0" x1="913" y1="684.8" x2="913" y2="276.8"/>
		<line class="st0" x1="913" y1="684.8" x2="918.3" y2="684.8"/>
		<line class="st0" x1="913" y1="644" x2="918.3" y2="644"/>
		<line class="st0" x1="913" y1="603.2" x2="918.3" y2="603.2"/>
		<line class="st0" x1="913" y1="562.4" x2="918.3" y2="562.4"/>
		<line class="st0" x1="913" y1="521.6" x2="918.3" y2="521.6"/>
		<line class="st0" x1="913" y1="480.8" x2="918.3" y2="480.8"/>
		<line class="st0" x1="913" y1="440" x2="918.3" y2="440"/>
		<line class="st0" x1="913" y1="399.2" x2="918.3" y2="399.2"/>
		<line class="st0" x1="913" y1="358.4" x2="918.3" y2="358.4"/>
		<line class="st0" x1="913" y1="317.6" x2="918.3" y2="317.6"/>
		<line class="st0" x1="913" y1="276.8" x2="918.3" y2="276.8"/>
	</g>
	<g transform="translate(907.6667,445)">
		<text transform="matrix(1 0 0 1 -8 245.3433)" class="st1 st2 st3">0</text>
	</g>
	<g transform="translate(907.6667,404.2)">
		<text transform="matrix(1 0 0 1 -26 245.3433)" class="st1 st2 st3">0.01</text>
	</g>
	<g transform="translate(907.6667,363.4)">
		<text transform="matrix(1 0 0 1 -26 245.3433)" class="st1 st2 st3">0.02</text>
	</g>
	<g transform="translate(907.6667,322.6)">
		<text transform="matrix(1 0 0 1 -26 245.3433)" class="st1 st2 st3">0.03</text>
	</g>
	<g transform="translate(907.6667,281.8)">
		<text transform="matrix(1 0 0 1 -26 245.3433)" class="st1 st2 st3">0.04</text>
	</g>
	<g transform="translate(907.6667,241)">
		<text transform="matrix(1 0 0 1 -26 245.3433)" class="st1 st2 st3">0.05</text>
	</g>
	<g transform="translate(907.6667,200.2)">
		<text transform="matrix(1 0 0 1 -26 245.3434)" class="st1 st2 st3">0.06</text>
	</g>
	<g transform="translate(907.6667,159.4)">
		<text transform="matrix(1 0 0 1 -26 245.3434)" class="st1 st2 st3">0.07</text>
	</g>
	<g transform="translate(907.6667,118.6)">
		<text transform="matrix(1 0 0 1 -26 245.3433)" class="st1 st2 st3">0.08</text>
	</g>
	<g transform="translate(907.6667,77.8)">
		<text transform="matrix(1 0 0 1 -26 245.3433)" class="st1 st2 st3">0.09</text>
	</g>
	<g transform="translate(907.6667,37)">
		<text transform="matrix(1 0 0 1 -19 245.3433)" class="st1 st2 st3">0.1</text>
	</g>
	<g transform="translate(877.6667,240.9998) rotate(-90)">
		<text transform="matrix(1 0 0 1 -274.3429 -4)" class="st1 st2 st4">Probability</text>
	</g>
	<g transform="translate(1180.5011,34.25)">
		<text transform="matrix(1 0 0 1 -65.5 235.8433)" class="st2 st4">Large Target Separation</text>
	</g>
	<g>
		<path class="st5" d="M913,684.8h1.3h1.3h1.3h1.3h1.3h1.3h1.3h1.3h1.3h1.3h1.3h1.3h1.3h1.3h1.3h1.3h1.3h1.3h1.3h1.3h1.3h1.3h1.3
			h1.3h1.3h1.3h1.3h1.3h1.3h1.3h1.3h1.3h1.3h1.3h1.3h1.3h1.3h1.3h1.3h1.3h1.3h1.3h1.3h1.3h1.3h1.3h1.3h1.3h1.3h1.3h1.3h1.3h1.3h1.3
			h1.3h1.3h1.3h1.3h1.3h1.3h1.3h1.3h1.3h1.3h1.3h1.3h1.3h1.3h1.3h1.3h1.3h1.3h1.3h1.3h1.3h1.3h1.3h1.3h1.3h1.3h1.3h1.3h1.3h1.3h1.3
			h1.3h1.3h1.3h1.3h1.3h1.3h1.3h1.3h1.3h1.3h1.3h1.3h1.3h1.3h1.3l1.3,0h1.3h1.3h1.3l1.3,0l1.3,0l1.3,0l1.3,0l1.3,0l1.3,0l1.3,0
			l1.3,0l1.3,0l1.3,0l1.3,0l1.3,0l1.3,0l1.3,0l1.3,0l1.3,0l1.3,0l1.3,0l1.3,0l1.3,0l1.3,0l1.3,0l1.3,0l1.3,0l1.3,0l1.3,0l1.3-0.1
			l1.3-0.1l1.3-0.1l1.3-0.1l1.3-0.1l1.3-0.1l1.3-0.2l1.3-0.2l1.3-0.2l1.3-0.3l1.3-0.3l1.3-0.4l1.3-0.4l1.3-0.5l1.3-0.5l1.3-0.6
			l1.3-0.7l1.3-0.8l1.3-0.9l1.3-1l1.3-1l1.3-1.1l1.3-1.2l1.3-1.3l1.3-1.4l1.3-1.5l1.3-1.6l1.3-1.7l1.3-1.7l1.3-1.8l1.3-1.8l1.3-1.9
			l1.3-1.9l1.3-1.9l1.3-1.9l1.3-1.8l1.3-1.8l1.3-1.7l1.3-1.6l1.3-1.5l1.3-1.3l1.3-1.2l1.3-1l1.3-0.8l1.3-0.6l1.3-0.4l1.3-0.2l1.3,0
			l1.3,0.2l1.3,0.4l1.3,0.6l1.3,0.8l1.3,1l1.3,1.2l1.3,1.3l1.3,1.5l1.3,1.6l1.3,1.7l1.3,1.8l1.3,1.8l1.3,1.9l1.3,1.9l1.3,1.9
			l1.3,1.9l1.3,1.8l1.3,1.8l1.3,1.7l1.3,1.7l1.3,1.6l1.3,1.5l1.3,1.4l1.3,1.3l1.3,1.2l1.3,1.1l1.3,1l1.3,0.9l1.3,0.8l1.3,0.8
			l1.3,0.7l1.3,0.6l1.3,0.5l1.3,0.5l1.3,0.4l1.3,0.4l1.3,0.3l1.3,0.3l1.3,0.2l1.3,0.2l1.3,0.2l1.3,0.1l1.3,0.1l1.3,0.1l1.3,0.1
			l1.3,0.1l1.3,0.1l1.3,0l1.3,0l1.3,0l1.3,0l1.3,0l1.3,0l1.3,0l1.3,0l1.3,0l1.3,0l1.3,0l1.3,0l1.3,0l1.3,0l1.3,0l1.3,0l1.3,0l1.3,0
			l1.3,0l1.3,0l1.3,0l1.3,0l1.3,0l1.3,0h1.3l1.3,0h1.3h1.3l1.3,0h1.3h1.3h1.3h1.3h1.3h1.3h1.3h1.3h1.3h1.3h1.3h1.3h1.3h1.3h1.3h1.3
			h1.3h1.3h1.3h1.3h1.3h1.3h1.3h1.3h1.3h1.3h1.3h1.3h1.3h1.3h1.3h1.3h1.3h1.3h1.3h1.3h1.3h1.3h1.3h1.3h1.3h1.3h1.3h1.3h1.3h1.3h1.3
			h1.3h1.3h1.3h1.3h1.3h1.3h1.3h1.3h1.3h1.3h1.3h1.3h1.3h1.3h1.3h1.3h1.3h1.3h1.3h1.3h1.3h1.3h1.3h1.3h1.3h1.3h1.3h1.3h1.3h1.3h1.3
			h1.3h1.3h1.3h1.3h1.3h1.3h1.3h1.3h1.3h1.3h1.3h1.3h1.3h1.3h1.3h1.3h1.3h1.3h1.3h1.3h1.3h1.3h1.3h1.3h1.3h1.3h1.3h1.3h1.3h1.3h1.3
			h1.3h1.3h1.3h1.3h1.3h1.3h1.3h1.3h1.3h1.3h1.3h1.3h1.3h1.3h1.3h1.3h1.3h1.3h1.3h1.3h1.3h1.3h1.3h1.3h1.3h1.3h1.3h1.3h1.3h1.3h1.3
			h1.3h1.3h1.3h1.3h1.3h1.3"/>
		<path class="st6" d="M913,684.8h1.3h1.3h1.3h1.3h1.3h1.3h1.3h1.3h1.3h1.3h1.3h1.3h1.3h1.3h1.3h1.3h1.3h1.3h1.3h1.3h1.3h1.3h1.3
			h1.3h1.3h1.3h1.3h1.3h1.3h1.3h1.3h1.3h1.3h1.3h1.3h1.3h1.3h1.3h1.3h1.3h1.3h1.3h1.3h1.3h1.3h1.3h1.3h1.3h1.3h1.3h1.3h1.3h1.3h1.3
			h1.3h1.3h1.3h1.3h1.3h1.3h1.3h1.3h1.3h1.3h1.3h1.3h1.3h1.3h1.3h1.3h1.3h1.3h1.3h1.3h1.3h1.3h1.3h1.3h1.3h1.3h1.3h1.3h1.3h1.3h1.3
			h1.3h1.3h1.3h1.3h1.3h1.3h1.3h1.3h1.3h1.3h1.3h1.3h1.3h1.3h1.3h1.3h1.3h1.3l1.3,0h1.3h1.3h1.3h1.3h1.3l1.3,0h1.3h1.3l1.3,0l1.3,0
			h1.3l1.3,0l1.3,0l1.3,0l1.3,0l1.3,0l1.3,0l1.3,0l1.3,0l1.3,0l1.3,0l1.3,0l1.3,0l1.3,0l1.3,0l1.3,0l1.3,0l1.3,0l1.3,0l1.3,0l1.3,0
			l1.3,0l1.3,0l1.3,0l1.3,0l1.3,0l1.3,0l1.3,0l1.3,0l1.3,0l1.3,0l1.3,0l1.3,0l1.3,0l1.3,0l1.3,0l1.3,0l1.3,0l1.3,0l1.3,0l1.3,0
			l1.3,0l1.3-0.1l1.3-0.1l1.3-0.1l1.3-0.1l1.3-0.1l1.3-0.1l1.3-0.1l1.3-0.1l1.3-0.1l1.3-0.2l1.3-0.2l1.3-0.2l1.3-0.2l1.3-0.2
			l1.3-0.3l1.3-0.3l1.3-0.3l1.3-0.4l1.3-0.4l1.3-0.4l1.3-0.5l1.3-0.5l1.3-0.6l1.3-0.6l1.3-0.7l1.3-0.8l1.3-0.8l1.3-0.9l1.3-1l1.3-1
			l1.3-1.1l1.3-1.2l1.3-1.3l1.3-1.4l1.3-1.5l1.3-1.6l1.3-1.7l1.3-1.8l1.3-1.9l1.3-2.1l1.3-2.2l1.3-2.3l1.3-2.4l1.3-2.6l1.3-2.7
			l1.3-2.8l1.3-3l1.3-3.1l1.3-3.2l1.3-3.4l1.3-3.5l1.3-3.6l1.3-3.8l1.3-3.9l1.3-4l1.3-4.1l1.3-4.2l1.3-4.4l1.3-4.5l1.3-4.5l1.3-4.6
			l1.3-4.7l1.3-4.8l1.3-4.8l1.3-4.8l1.3-4.9l1.3-4.9l1.3-4.9l1.3-4.9l1.3-4.8l1.3-4.8l1.3-4.7l1.3-4.7l1.3-4.6l1.3-4.5l1.3-4.4
			l1.3-4.2l1.3-4.1l1.3-3.9l1.3-3.7l1.3-3.6l1.3-3.4l1.3-3.1l1.3-2.9l1.3-2.7l1.3-2.4l1.3-2.2l1.3-1.9l1.3-1.6l1.3-1.4l1.3-1.1
			l1.3-0.8l1.3-0.5l1.3-0.2l1.3,0.1l1.3,0.4l1.3,0.7l1.3,0.9l1.3,1.2l1.3,1.5l1.3,1.8l1.3,2l1.3,2.3l1.3,2.5l1.3,2.8l1.3,3l1.3,3.2
			l1.3,3.4l1.3,3.6l1.3,3.8l1.3,3.9l1.3,4.1l1.3,4.2l1.3,4.3l1.3,4.4l1.3,4.5l1.3,4.6l1.3,4.6l1.3,4.7l1.3,4.7l1.3,4.7l1.3,4.7
			l1.3,4.7l1.3,4.7l1.3,4.7l1.3,4.6l1.3,4.6l1.3,4.5l1.3,4.5l1.3,4.4l1.3,4.3l1.3,4.2l1.3,4.1l1.3,4l1.3,3.9l1.3,3.8l1.3,3.7
			l1.3,3.5l1.3,3.4l1.3,3.3l1.3,3.2l1.3,3l1.3,2.9l1.3,2.8l1.3,2.7l1.3,2.5l1.3,2.4l1.3,2.3l1.3,2.2l1.3,2.1l1.3,2l1.3,1.9l1.3,1.8
			l1.3,1.7l1.3,1.6l1.3,1.5l1.3,1.4l1.3,1.3l1.3,1.2l1.3,1.1l1.3,1l1.3,1l1.3,0.9l1.3,0.8l1.3,0.8l1.3,0.7l1.3,0.7l1.3,0.6l1.3,0.6
			l1.3,0.5l1.3,0.5l1.3,0.4l1.3,0.4l1.3,0.4l1.3,0.3l1.3,0.3l1.3,0.3l1.3,0.3l1.3,0.2l1.3,0.2l1.3,0.2l1.3,0.2l1.3,0.2l1.3,0.1
			l1.3,0.1l1.3,0.1l1.3,0.1l1.3,0.1l1.3,0.1l1.3,0.1l1.3,0.1l1.3,0.1l1.3,0.1l1.3,0l1.3,0l1.3,0l1.3,0l1.3,0l1.3,0l1.3,0l1.3,0
			l1.3,0l1.3,0l1.3,0l1.3,0l1.3,0l1.3,0l1.3,0l1.3,0l1.3,0l1.3,0l1.3,0l1.3,0l1.3,0l1.3,0l1.3,0l1.3,0l1.3,0l1.3,0l1.3,0l1.3,0
			l1.3,0l1.3,0l1.3,0l1.3,0l1.3,0l1.3,0l1.3,0l1.3,0l1.3,0l1.3,0l1.3,0l1.3,0l1.3,0l1.3,0l1.3,0h1.3l1.3,0l1.3,0l1.3,0h1.3h1.3h1.3
			l1.3,0"/>
		<path class="st7" d="M913,684.8h1.3h1.3h1.3h1.3h1.3h1.3h1.3h1.3h1.3h1.3h1.3h1.3h1.3h1.3h1.3h1.3h1.3h1.3h1.3h1.3h1.3h1.3h1.3
			h1.3h1.3h1.3h1.3h1.3h1.3h1.3h1.3h1.3h1.3h1.3h1.3h1.3h1.3h1.3h1.3h1.3h1.3h1.3h1.3h1.3h1.3h1.3h1.3h1.3h1.3h1.3h1.3h1.3h1.3h1.3
			h1.3h1.3l1.3,0h1.3h1.3l1.3,0h1.3l1.3,0l1.3,0l1.3,0l1.3,0l1.3,0l1.3,0l1.3,0l1.3,0l1.3,0l1.3,0l1.3,0l1.3,0l1.3,0l1.3,0l1.3,0
			l1.3,0l1.3,0l1.3,0l1.3,0l1.3,0l1.3,0l1.3,0l1.3,0l1.3,0l1.3,0l1.3-0.1l1.3-0.1l1.3-0.1l1.3-0.1l1.3-0.1l1.3-0.1l1.3-0.2l1.3-0.2
			l1.3-0.2l1.3-0.3l1.3-0.3l1.3-0.4l1.3-0.5l1.3-0.6l1.3-0.7l1.3-0.8l1.3-0.9l1.3-1.1l1.3-1.2l1.3-1.4l1.3-1.6l1.3-1.9l1.3-2.1
			l1.3-2.4l1.3-2.7l1.3-3.1l1.3-3.4l1.3-3.8l1.3-4.2l1.3-4.7l1.3-5.1l1.3-5.6l1.3-6.1l1.3-6.7l1.3-7.2l1.3-7.8l1.3-8.3l1.3-8.9
			l1.3-9.4l1.3-9.9l1.3-10.4l1.3-10.9l1.3-11.3l1.3-11.7l1.3-12l1.3-12.3l1.3-12.5l1.3-12.6l1.3-12.6l1.3-12.6l1.3-12.4l1.3-12.2
			l1.3-11.8l1.3-11.3l1.3-10.8l1.3-10.1l1.3-9.3l1.3-8.5l1.3-7.6l1.3-6.5l1.3-5.5l1.3-4.3l1.3-3.1l1.3-1.9l1.3-0.7l1.3,0.6l1.3,1.8
			l1.3,3l1.3,4.2l1.3,5.4l1.3,6.5l1.3,7.5l1.3,8.4l1.3,9.3l1.3,10.1l1.3,10.8l1.3,11.3l1.3,11.8l1.3,12.2l1.3,12.5l1.3,12.6
			l1.3,12.7l1.3,12.7l1.3,12.6l1.3,12.4l1.3,12.1l1.3,11.8l1.3,11.4l1.3,11l1.3,10.5l1.3,10l1.3,9.5l1.3,8.9l1.3,8.4l1.3,7.8
			l1.3,7.3l1.3,6.7l1.3,6.2l1.3,5.6l1.3,5.1l1.3,4.7l1.3,4.2l1.3,3.8l1.3,3.4l1.3,3l1.3,2.7l1.3,2.4l1.3,2.1l1.3,1.8l1.3,1.6
			l1.3,1.4l1.3,1.2l1.3,1l1.3,0.9l1.3,0.8l1.3,0.6l1.3,0.6l1.3,0.5l1.3,0.4l1.3,0.3l1.3,0.3l1.3,0.2l1.3,0.2l1.3,0.2l1.3,0.1
			l1.3,0.1l1.3,0.1l1.3,0.1l1.3,0.1l1.3,0l1.3,0l1.3,0l1.3,0l1.3,0l1.3,0l1.3,0l1.3,0l1.3,0l1.3,0l1.3,0l1.3,0l1.3,0l1.3,0l1.3,0
			l1.3,0l1.3,0l1.3,0l1.3,0l1.3,0l1.3,0l1.3,0l1.3,0l1.3,0l1.3,0h1.3l1.3,0h1.3h1.3l1.3,0h1.3h1.3h1.3h1.3h1.3h1.3h1.3h1.3h1.3h1.3
			h1.3h1.3h1.3h1.3h1.3h1.3h1.3h1.3h1.3h1.3h1.3h1.3h1.3h1.3h1.3h1.3h1.3h1.3h1.3h1.3h1.3h1.3h1.3h1.3h1.3h1.3h1.3h1.3h1.3h1.3h1.3
			h1.3h1.3h1.3h1.3h1.3h1.3h1.3h1.3h1.3h1.3h1.3h1.3h1.3h1.3h1.3h1.3h1.3h1.3h1.3h1.3h1.3h1.3h1.3h1.3h1.3h1.3h1.3h1.3h1.3h1.3h1.3
			h1.3h1.3h1.3h1.3h1.3h1.3h1.3h1.3h1.3h1.3h1.3h1.3h1.3h1.3h1.3h1.3h1.3h1.3h1.3h1.3h1.3h1.3h1.3h1.3h1.3h1.3h1.3h1.3h1.3h1.3h1.3
			h1.3h1.3h1.3h1.3h1.3h1.3h1.3h1.3h1.3h1.3h1.3h1.3h1.3h1.3h1.3h1.3h1.3h1.3h1.3h1.3h1.3h1.3h1.3h1.3h1.3h1.3h1.3h1.3h1.3h1.3h1.3
			h1.3h1.3h1.3h1.3h1.3h1.3h1.3h1.3h1.3h1.3h1.3h1.3h1.3h1.3h1.3h1.3h1.3h1.3h1.3h1.3h1.3"/>
	</g>
	<g>
		<path class="st8" d="M913,684.8h1.3h1.3h1.3h1.3h1.3h1.3h1.3h1.3h1.3h1.3h1.3h1.3h1.3h1.3h1.3h1.3h1.3h1.3h1.3h1.3h1.3h1.3h1.3
			h1.3h1.3h1.3h1.3h1.3h1.3h1.3h1.3h1.3h1.3h1.3h1.3h1.3h1.3h1.3h1.3h1.3h1.3h1.3h1.3h1.3h1.3h1.3h1.3h1.3h1.3h1.3h1.3h1.3h1.3h1.3
			h1.3h1.3h1.3h1.3h1.3h1.3h1.3h1.3h1.3h1.3h1.3h1.3h1.3h1.3h1.3h1.3h1.3h1.3h1.3h1.3h1.3h1.3h1.3h1.3h1.3h1.3h1.3h1.3h1.3h1.3h1.3
			h1.3h1.3h1.3h1.3h1.3l1.3,0h1.3h1.3h1.3h1.3h1.3l1.3,0h1.3h1.3h1.3l1.3,0l1.3,0l1.3,0h1.3l1.3,0l1.3,0l1.3,0l1.3,0l1.3,0l1.3,0
			l1.3,0l1.3,0l1.3,0l1.3,0l1.3,0l1.3,0l1.3,0l1.3,0l1.3,0l1.3,0l1.3,0l1.3,0l1.3,0l1.3,0l1.3,0l1.3,0l1.3,0l1.3,0l1.3,0l1.3,0
			l1.3,0l1.3,0l1.3,0l1.3,0l1.3,0l1.3,0l1.3,0l1.3,0l1.3,0l1.3,0l1.3,0l1.3,0l1.3,0l1.3,0l1.3,0l1.3,0l1.3,0l1.3-0.1l1.3-0.1
			l1.3-0.1l1.3-0.1l1.3-0.1l1.3-0.1l1.3-0.1l1.3-0.1l1.3-0.1l1.3-0.1l1.3-0.2l1.3-0.2l1.3-0.2l1.3-0.2l1.3-0.2l1.3-0.3l1.3-0.3
			l1.3-0.3l1.3-0.3l1.3-0.4l1.3-0.4l1.3-0.4l1.3-0.5l1.3-0.5l1.3-0.6l1.3-0.6l1.3-0.7l1.3-0.7l1.3-0.8l1.3-0.8l1.3-0.9l1.3-1
			l1.3-1.1l1.3-1.1l1.3-1.2l1.3-1.3l1.3-1.4l1.3-1.5l1.3-1.6l1.3-1.7l1.3-1.8l1.3-1.9l1.3-2l1.3-2.1l1.3-2.2l1.3-2.3l1.3-2.5
			l1.3-2.6l1.3-2.7l1.3-2.8l1.3-3l1.3-3.1l1.3-3.2l1.3-3.3l1.3-3.5l1.3-3.6l1.3-3.7l1.3-3.8l1.3-4l1.3-4.1l1.3-4.2l1.3-4.3l1.3-4.4
			l1.3-4.5l1.3-4.6l1.3-4.7l1.3-4.7l1.3-4.8l1.3-4.8l1.3-4.9l1.3-4.9l1.3-4.9l1.3-4.9l1.3-4.9l1.3-4.9l1.3-4.9l1.3-4.8l1.3-4.8
			l1.3-4.7l1.3-4.6l1.3-4.5l1.3-4.4l1.3-4.3l1.3-4.2l1.3-4l1.3-3.8l1.3-3.7l1.3-3.5l1.3-3.3l1.3-3l1.3-2.8l1.3-2.6l1.3-2.3l1.3-2.1
			l1.3-1.8l1.3-1.5l1.3-1.3l1.3-1l1.3-0.7l1.3-0.4l1.3-0.1l1.3,0.2l1.3,0.4l1.3,0.7l1.3,1l1.3,1.3l1.3,1.6l1.3,1.8l1.3,2.1l1.3,2.3
			l1.3,2.6l1.3,2.8l1.3,3.1l1.3,3.3l1.3,3.5l1.3,3.7l1.3,3.8l1.3,4l1.3,4.2l1.3,4.3l1.3,4.4l1.3,4.5l1.3,4.6l1.3,4.7l1.3,4.8
			l1.3,4.9l1.3,4.9l1.3,4.9l1.3,4.9l1.3,4.9l1.3,4.9l1.3,4.9l1.3,4.9l1.3,4.8l1.3,4.8l1.3,4.7l1.3,4.6l1.3,4.6l1.3,4.5l1.3,4.4
			l1.3,4.3l1.3,4.2l1.3,4.1l1.3,4l1.3,3.8l1.3,3.7l1.3,3.6l1.3,3.5l1.3,3.3l1.3,3.2l1.3,3.1l1.3,2.9l1.3,2.8l1.3,2.7l1.3,2.6
			l1.3,2.4l1.3,2.3l1.3,2.2l1.3,2.1l1.3,2l1.3,1.9l1.3,1.8l1.3,1.7l1.3,1.6l1.3,1.5l1.3,1.4l1.3,1.3l1.3,1.2l1.3,1.1l1.3,1l1.3,1
			l1.3,0.9l1.3,0.8l1.3,0.8l1.3,0.7l1.3,0.7l1.3,0.6l1.3,0.6l1.3,0.5l1.3,0.5l1.3,0.4l1.3,0.4l1.3,0.4l1.3,0.3l1.3,0.3l1.3,0.3
			l1.3,0.3l1.3,0.2l1.3,0.2l1.3,0.2l1.3,0.2l1.3,0.2l1.3,0.1l1.3,0.1l1.3,0.1l1.3,0.1l1.3,0.1l1.3,0.1l1.3,0.1l1.3,0.1l1.3,0.1
			l1.3,0.1l1.3,0l1.3,0l1.3,0l1.3,0l1.3,0l1.3,0l1.3,0l1.3,0l1.3,0l1.3,0l1.3,0l1.3,0l1.3,0l1.3,0l1.3,0l1.3,0l1.3,0l1.3,0l1.3,0
			l1.3,0l1.3,0l1.3,0l1.3,0l1.3,0l1.3,0l1.3,0l1.3,0l1.3,0l1.3,0l1.3,0l1.3,0l1.3,0l1.3,0l1.3,0l1.3,0l1.3,0l1.3,0l1.3,0l1.3,0
			l1.3,0l1.3,0l1.3,0l1.3,0h1.3l1.3,0l1.3,0l1.3,0h1.3h1.3h1.3l1.3,0"/>
		<path class="st9" d="M913,684.8h1.3h1.3h1.3h1.3h1.3h1.3h1.3h1.3h1.3h1.3h1.3h1.3h1.3h1.3h1.3h1.3h1.3h1.3h1.3h1.3h1.3h1.3h1.3
			h1.3h1.3h1.3h1.3h1.3h1.3h1.3h1.3h1.3h1.3h1.3h1.3h1.3h1.3h1.3h1.3h1.3h1.3h1.3h1.3h1.3h1.3h1.3h1.3h1.3h1.3h1.3h1.3h1.3h1.3h1.3
			h1.3h1.3l1.3,0h1.3h1.3l1.3,0h1.3l1.3,0l1.3,0l1.3,0l1.3,0l1.3,0l1.3,0l1.3,0l1.3,0l1.3,0l1.3,0l1.3,0l1.3,0l1.3,0l1.3,0l1.3,0
			l1.3,0l1.3,0l1.3,0l1.3,0l1.3,0l1.3,0l1.3,0l1.3,0l1.3,0l1.3,0l1.3-0.1l1.3-0.1l1.3-0.1l1.3-0.1l1.3-0.1l1.3-0.1l1.3-0.2l1.3-0.2
			l1.3-0.2l1.3-0.3l1.3-0.4l1.3-0.4l1.3-0.5l1.3-0.6l1.3-0.7l1.3-0.8l1.3-0.9l1.3-1.1l1.3-1.3l1.3-1.4l1.3-1.7l1.3-1.9l1.3-2.2
			l1.3-2.5l1.3-2.8l1.3-3.1l1.3-3.5l1.3-3.9l1.3-4.3l1.3-4.8l1.3-5.3l1.3-5.8l1.3-6.4l1.3-6.9l1.3-7.5l1.3-8.1l1.3-8.7l1.3-9.3
			l1.3-9.8l1.3-10.4l1.3-11l1.3-11.5l1.3-12l1.3-12.4l1.3-12.8l1.3-13.2l1.3-13.4l1.3-13.6l1.3-13.7l1.3-13.7l1.3-13.6l1.3-13.4
			l1.3-13.1l1.3-12.7l1.3-12.2l1.3-11.6l1.3-10.8l1.3-10l1.3-9.1l1.3-8.1l1.3-7l1.3-5.8l1.3-4.6l1.3-3.3l1.3-2l1.3-0.7l1.3,0.7
			l1.3,2l1.3,3.3l1.3,4.6l1.3,5.8l1.3,6.9l1.3,8l1.3,9.1l1.3,10l1.3,10.8l1.3,11.5l1.3,12.2l1.3,12.7l1.3,13.1l1.3,13.4l1.3,13.6
			l1.3,13.7l1.3,13.7l1.3,13.6l1.3,13.4l1.3,13.2l1.3,12.8l1.3,12.5l1.3,12l1.3,11.5l1.3,11l1.3,10.4l1.3,9.9l1.3,9.3l1.3,8.7
			l1.3,8.1l1.3,7.5l1.3,6.9l1.3,6.4l1.3,5.8l1.3,5.3l1.3,4.8l1.3,4.4l1.3,3.9l1.3,3.5l1.3,3.1l1.3,2.8l1.3,2.5l1.3,2.2l1.3,1.9
			l1.3,1.7l1.3,1.5l1.3,1.3l1.3,1.1l1.3,0.9l1.3,0.8l1.3,0.7l1.3,0.6l1.3,0.5l1.3,0.4l1.3,0.4l1.3,0.3l1.3,0.2l1.3,0.2l1.3,0.2
			l1.3,0.1l1.3,0.1l1.3,0.1l1.3,0.1l1.3,0.1l1.3,0.1l1.3,0l1.3,0l1.3,0l1.3,0l1.3,0l1.3,0l1.3,0l1.3,0l1.3,0l1.3,0l1.3,0l1.3,0
			l1.3,0l1.3,0l1.3,0l1.3,0l1.3,0l1.3,0l1.3,0l1.3,0l1.3,0l1.3,0l1.3,0l1.3,0l1.3,0h1.3l1.3,0h1.3h1.3l1.3,0h1.3h1.3h1.3h1.3h1.3
			h1.3h1.3h1.3h1.3h1.3h1.3h1.3h1.3h1.3h1.3h1.3h1.3h1.3h1.3h1.3h1.3h1.3h1.3h1.3h1.3h1.3h1.3h1.3h1.3h1.3h1.3h1.3h1.3h1.3h1.3h1.3
			h1.3h1.3h1.3h1.3h1.3h1.3h1.3h1.3h1.3h1.3h1.3h1.3h1.3h1.3h1.3h1.3h1.3h1.3h1.3h1.3h1.3h1.3h1.3h1.3h1.3h1.3h1.3h1.3h1.3h1.3h1.3
			h1.3h1.3h1.3h1.3h1.3h1.3h1.3h1.3h1.3h1.3h1.3h1.3h1.3h1.3h1.3h1.3h1.3h1.3h1.3h1.3h1.3h1.3h1.3h1.3h1.3h1.3h1.3h1.3h1.3h1.3h1.3
			h1.3h1.3h1.3h1.3h1.3h1.3h1.3h1.3h1.3h1.3h1.3h1.3h1.3h1.3h1.3h1.3h1.3h1.3h1.3h1.3h1.3h1.3h1.3h1.3h1.3h1.3h1.3h1.3h1.3h1.3h1.3
			h1.3h1.3h1.3h1.3h1.3h1.3h1.3h1.3h1.3h1.3h1.3h1.3h1.3h1.3h1.3h1.3h1.3h1.3h1.3h1.3h1.3h1.3h1.3"/>
	</g>
</g>
</svg>
